<?xml version="1.0" encoding="UTF-8"?>
<svg viewBox="0 0 350 400" width="640" height="480" xmlns="http://www.w3.org/2000/svg">
 <g>
  <title>Layer 1</title>
  <path fill-rule="evenodd" fill="#7f0000" d="m122.292,0c-44.783997,9.288 -76.608002,23.688 -96.983999,44.316002c-20.232,20.699997 -20.736001,51.012001 -24.012001,78.155998c-3.384,26.964005 0.468,59.363998 4.212,82.619995c3.708,23.040009 9.288,38.880005 18,55.296005c8.675999,16.30899 21.383999,29.484009 33.66,42.048004c12.239998,12.419983 20.304001,20.880005 39.059998,32.472992c18.792,11.556 44.928009,33.912018 72.143005,36.647003c27.108994,2.59201 56.125,-4.319 88.850006,-20.880005c18.035004,-14.903992 29.411987,-34.415985 35.100006,-59.507996c5.362976,-25.30899 4.28299,-59.580002 -2.125,-90.32399c-6.516022,-30.852005 -23.146027,-66.671997 -36.143021,-92.447998c-13.033005,-25.848 -19.44101,-42.300003 -41.438004,-60.588001c-22.247986,-18.216011 -51.801987,-33.87601 -90.32299,-47.80801z" clip-rule="evenodd"/>
  <path fill-rule="evenodd" fill="#7f0000" d="m161.136993,368.100006c-8.820007,-2.987 -35.713005,-15.660004 -51.661003,-25.234985c-15.875999,-9.612 -28.440002,-17.641022 -42.695999,-31.860016c-14.39999,-14.436005 -34.451992,-39.384003 -42.65999,-53.459991c-8.172001,-14.040009 -11.052001,-35.172012 -6.012001,-30.06102c5.147989,5.185013 28.836,50.688004 36.071989,60.695999c6.948002,9.756012 0.756001,-5.328003 6.012001,-1.799988c5.327999,3.600006 17.352001,17.459991 25.236004,22.824005c7.739998,5.220001 14.795998,2.843994 21.023994,8.423981c6.120003,5.544006 6.515999,17.460022 15.624001,24.624023c9.035995,7.09198 31.859009,12.959991 38.484009,17.459991c6.479004,4.355988 9.072998,11.087982 0.576996,8.388z" clip-rule="evenodd"/>
  <path fill-rule="evenodd" fill="#7f0000" d="m31.896,216.432007c-4.896,-22.895996 -6.444,-61.020004 -6.048,-86.328003c0.324001,-25.380005 2.916,-47.304001 8.316002,-64.367996c5.327999,-17.027996 11.627998,-27.719997 23.472,-37.079998c11.844002,-9.46801 31.608002,-17.028009 46.944,-18.936009c15.227997,-1.98 26.352005,-0.288 43.919998,7.56c17.567993,7.883999 42.623001,20.412001 60.587997,39.384001c17.820007,18.935997 32.977005,47.951996 45.469009,73.440002c12.347992,25.451996 22.932007,53.496002 28.007996,78.011993c4.895996,24.443008 3.454987,46.727997 1.511993,67.391998c-2.015991,20.484009 -4.247986,40.428009 -13.644989,54.540009c-9.718994,13.932007 -26.568008,23.79599 -43.164001,28.764008c-16.596008,4.787994 -35.064011,7.379974 -55.26001,0c-20.339996,-7.632019 -45.395996,-29.052002 -65.159996,-44.676025c-19.872002,-15.803986 -39.599998,-32.003998 -52.236,-48.455994c-12.563999,-16.37999 -17.964001,-26.639999 -22.716,-49.247986z" clip-rule="evenodd"/>
  <path fill-rule="evenodd" fill="#ff0000" d="m140.184006,171c-26.963997,-20.880005 -47.591995,-37.511993 -62.855995,-50.723999c-15.228012,-13.176003 -23.220009,-17.784004 -28.008011,-28.008003c-4.824001,-10.367996 -7.02,-23.147995 -0.756001,-33.335999c6.228001,-10.295998 26.892002,-32.615999 37.836002,-27.251999c10.872002,5.507999 19.512001,39.708 27.288002,59.832001c7.703995,20.124001 13.967995,39.635994 18.935989,59.795998c2.520004,6.552002 5.040009,13.104004 7.560013,19.692001z" clip-rule="evenodd"/>
  <path fill-rule="evenodd" fill="#ff0000" d="m133.380005,130.860001c-3.059998,-13.68 -7.308006,-28.295998 -12.888008,-44.676003c-5.652,-16.559998 -21.311996,-41.723999 -20.447998,-52.991997c0.936005,-11.196001 17.424004,-14.400002 25.739998,-13.644001c8.279999,0.756001 15.912003,6.768 23.472,18.18c-2.556,-0.396 -2.556,-0.396 0,0c2.557007,0.360001 11.916,-3.276001 15.156006,2.267998c3.132996,5.436001 5.18399,9.288002 3.778992,30.312c-1.618988,21.204002 -5.722992,52.452003 -12.85199,95.399994c-1.549011,-1.187988 -3.061005,-1.691986 -4.535004,-1.511993c-1.548996,0.072006 -3.024994,0.828003 -4.572998,2.268005c-4.283005,-11.844009 -8.567001,-23.723999 -12.850998,-35.604004z" clip-rule="evenodd"/>
  <path fill-rule="evenodd" fill="#ff0000" d="m165.167999,163.440002c-0.145004,-11.412003 8.389008,-46.368004 12.132996,-63.612c3.63501,-17.316002 4.787003,-35.676003 9.828003,-39.384003c4.966995,-3.599998 12.63501,9.431999 19.69101,17.423996c7.019989,7.776001 18.503998,19.512001 21.959,29.520004c3.204987,10.043999 6.192993,20.195999 -2.268005,30.311996c-8.710999,9.972 -38.050995,25.128006 -48.455002,29.52002c-10.296005,4.283981 -12.781006,7.37999 -12.888,-3.780014z" clip-rule="evenodd"/>
  <path fill-rule="evenodd" fill="#ff0000" d="m172.764008,180.108002c2.953003,-3.888 14.869003,-5.436005 25.740005,-10.619995c10.90799,-5.256012 30.167999,-18.180008 38.628998,-20.448013c8.134995,-2.375992 6.011993,-0.467987 10.584,6.840012c4.5,7.37999 13.752014,26.963989 16.667999,37.080002c2.915985,9.935989 6.588013,20.519989 0.756012,22.715988c-6.084015,2.052002 -22.320007,-5.938995 -36.361008,-9.827988c-14.184006,-4.032013 -38.230011,-9.324005 -47.699005,-13.644012c-9.433014,-4.319992 -11.233002,-8.35199 -8.317001,-12.095993z" clip-rule="evenodd"/>
  <path fill-rule="evenodd" fill="#ff0000" d="m171.251999,193.716003c5.688004,-0.180008 30.022995,13.860001 44.675995,18.936996c14.580002,4.822998 32.545013,5.544006 41.651993,10.619003c8.820007,5.076004 9.21701,12.097 11.340027,19.692001c2.015991,7.451996 1.942993,17.67601 0.755981,24.983994c-1.332001,7.343994 -2.160004,18.216003 -8.31601,18.179993c-6.263992,-0.359985 -19.474991,-11.087982 -28.798981,-19.691986c-9.576004,-8.78299 -18.792999,-23.003998 -27.251999,-31.822998c-8.568008,-8.893005 -16.88501,-13.536011 -22.71701,-20.448013c-5.794998,-6.94899 -16.884995,-20.196991 -11.339996,-20.44899z" clip-rule="evenodd"/>
  <path fill-rule="evenodd" fill="#ff0000" d="m128.807999,174.815994c-6.515999,-7.956009 -33.155998,-25.559998 -47.699997,-37.115997c-14.508003,-11.556 -30.996002,-30.239998 -38.628002,-31.067993c-7.596001,-0.648003 -6.767998,16.415993 -6.804001,26.496002c-0.216,9.827988 -0.792,25.416 6.048,32.580002c6.912003,6.984009 21.816002,6.839996 34.848,9.863998c12.996002,3.024002 33.480003,8.388 42.408005,8.31601c8.711998,-0.180023 16.019997,-1.440018 9.827995,-9.072021z" clip-rule="evenodd"/>
  <path fill-rule="evenodd" fill="#ff0000" d="m141.695999,199.044006c-13.139999,-2.664001 -27.251999,-4.427994 -43.164001,-5.328003c-15.947998,-0.863998 -38.987999,-8.891998 -51.48,0c-12.491997,8.892014 -1.403999,24.768005 1.512001,35.604004c2.916,10.800003 6.624001,16.955002 15.876003,28.764008c9.360001,11.880005 29.916,36.467987 39.383995,41.652008c9.396004,5.003998 11.304001,-0.937012 16.667999,-11.341003c5.364006,-10.512024 11.556007,-35.67601 15.155998,-50.76001c3.564011,-15.011017 5.508011,-27.647003 6.048004,-38.591003z" clip-rule="evenodd"/>
  <path fill-rule="evenodd" fill="#ff0000" d="m146.988007,228.563004c-2.412003,9.181 -5.903992,23.220993 -9.071991,37.115982c-3.312012,13.896027 -9.936005,34.740021 -9.863998,45.433014c0,10.476013 3.167999,11.376007 10.619995,17.424011c7.559998,5.975983 23.18399,15.406982 34.091995,18.179993c10.873001,2.627991 25.128998,1.079987 30.275009,-2.304016c4.860992,-3.491974 4.284988,-4.031982 -0.756012,-18.144989c-5.255997,-14.471985 -22.17601,-47.015991 -29.520004,-66.671997c-7.270996,-19.690994 -10.152008,-41.759995 -13.645004,-49.967987c-3.563004,-8.171997 -5.61499,-1.656006 -7.55899,1.511993c-2.123001,3.131989 -2.303009,8.244995 -4.570999,17.423996z" clip-rule="evenodd"/>
  <path fill-rule="evenodd" fill="#ff0000" d="m169.703003,217.979004c2.412003,9.108002 5.186005,22.103989 11.376999,38.592987c6.155991,16.380005 16.847992,45.792023 24.983994,59.075012c7.919998,13.177002 14.794998,20.845001 22.715012,19.691986c7.884995,-1.367981 21.419998,-19.799988 24.228989,-27.251984c2.557007,-7.451996 -1.042999,-8.171997 -8.315994,-17.424011c-7.522995,-9.503998 -28.188004,-29.699982 -35.604004,-38.627991c-7.343994,-8.929001 -2.80899,-7.848999 -8.315994,-14.400009c-5.652008,-6.659988 -19.26001,-19.151993 -24.984009,-24.983002c-5.687988,-5.939987 -8.207001,-10.691986 -9.106995,-9.827988c-1.009003,0.827988 0.466995,6.154999 3.022003,15.154999z" clip-rule="evenodd"/>
  <path fill-rule="evenodd" fill="#E7F2D6" d="m188.641006,251.279999c-1.403992,0.106995 4.5,17.171997 9.10701,26.494995c4.644989,9.108002 16.632996,27.899994 18.179993,28.045013c1.225006,-0.14502 -5.255997,-18.937012 -9.863007,-28.045013c-4.680008,-9.322998 -15.949997,-26.386993 -17.423996,-26.494995z" clip-rule="evenodd"/>
  <path fill-rule="evenodd" fill="#E7F2D6" d="m212.867004,269.459991c1.621002,-0.324005 20.269989,24.048004 22.751999,29.519989c2.125,5.328003 -5.218994,7.057007 -9.10701,2.269012c-3.959,-5.148987 -15.118988,-31.248993 -13.644989,-31.789001z" clip-rule="evenodd"/>
  <path fill-rule="evenodd" fill="#E7F2D6" d="m198.503998,217.188004c-0.862991,-0.143997 7.561005,5.220993 12.096008,9.863998c4.354996,4.608002 13.464996,17.171997 14.399994,17.423996c0.791,0.035995 -4.679993,-12.095993 -9.072006,-16.667999c-4.572998,-4.679993 -16.488998,-10.440002 -17.423996,-10.619995z" clip-rule="evenodd"/>
  <path fill-rule="evenodd" fill="#E7F2D6" d="m220.464996,221.003998c2.375,0.395996 27.89801,11.591995 31.031006,13.608002c2.770996,1.764008 -8.389008,0.035004 -13.606995,-2.268997c-5.221008,-2.410995 -19.729004,-11.699005 -17.424011,-11.339005z" clip-rule="evenodd"/>
  <path fill-rule="evenodd" fill="#E7F2D6" d="m200.016006,174.024002c1.835999,-1.332001 0.145004,0.576004 7.561005,-1.512009c7.343994,-2.231995 33.442993,-11.195999 36.358994,-11.339996c2.59201,-0.108002 -11.69899,7.307999 -19.690994,10.584c-8.100006,3.096008 -23.869003,7.919998 -28.007996,8.352005c-4.104019,0.324005 1.834991,-4.895996 3.778992,-6.084z" clip-rule="evenodd"/>
  <path fill-rule="evenodd" fill="#E7F2D6" d="m221.977005,192.203995c1.547012,0.863998 9.576004,2.052002 15.912003,3.022995c6.190994,0.828003 22.606995,3.061005 21.203003,2.268997c-1.69101,-1.043991 -24.012009,-6.623993 -30.313004,-7.560989c-6.19101,-0.899002 -8.459,1.333008 -6.802002,2.268997z" clip-rule="evenodd"/>
  <path fill-rule="evenodd" fill="#E7F2D6" d="m178.057007,152.820007c0.719009,0.720001 13.96701,-7.524002 21.959,-13.608002c7.813004,-6.192001 25.488007,-21.815994 24.984009,-22.715996c-0.792999,-0.863998 -20.881012,11.232002 -28.764008,17.387993c-7.920013,6.119995 -18.793015,17.891998 -18.179001,18.936005z" clip-rule="evenodd"/>
  <path fill-rule="evenodd" fill="#E7F2D6" d="m198.503998,115.739998c2.125,-1.187996 12.132996,-11.916 12.096008,-12.888c-0.145004,-1.007996 -10.908005,4.5 -12.852005,6.804001c-2.052994,2.124001 -1.477005,7.164001 0.755997,6.084z" clip-rule="evenodd"/>
  <path fill-rule="evenodd" fill="#E7F2D6" d="m155.339996,61.956001c0.611008,0.683998 0.863007,21.456001 0.755997,31.068001c-0.144989,9.467995 -0.972992,26.279999 -1.511993,25.739998c-0.792999,-0.755997 -2.339996,-20.052002 -2.268005,-29.556c0.073013,-9.575996 2.375,-27.863998 3.024002,-27.251999z" clip-rule="evenodd"/>
  <path fill-rule="evenodd" fill="#E7F2D6" d="m125.028,40.751999c1.368004,3.348 8.315994,39.744003 8.352005,43.919998c-0.036011,3.888 -6.984001,-12.348 -8.352005,-19.691994c-1.440002,-7.452003 -1.440002,-27.468002 0,-24.228004z" clip-rule="evenodd"/>
  <path fill-rule="evenodd" fill="#E7F2D6" d="m133.380005,96.804001c-0.324005,0.251999 1.727997,10.403999 3.779999,18.935997c1.835999,8.532005 7.127991,31.860008 7.559998,31.788002c0.360001,-0.432007 -3.492004,-24.767998 -5.292007,-33.300003c-1.944,-8.639999 -5.723999,-17.639999 -6.047989,-17.423996z" clip-rule="evenodd"/>
  <path fill-rule="evenodd" fill="#E7F2D6" d="m100.800003,82.403999c2.087997,3.599998 10.475998,30.132004 13.643997,40.139999c2.987999,9.900002 6.444,22.32 4.536003,18.935997c-2.124001,-3.671997 -13.608002,-30.239998 -16.668007,-40.139999c-3.059998,-10.007996 -3.563995,-22.427994 -1.511993,-18.935997z" clip-rule="evenodd"/>
  <path fill-rule="evenodd" fill="#E7F2D6" d="m65.195999,86.183998c1.332001,2.268005 16.272003,19.223999 18.18,20.448006c1.620003,1.007996 -4.463997,-10.188004 -7.559998,-13.608002c-3.167999,-3.492004 -11.844002,-9.108002 -10.620003,-6.840004z" clip-rule="evenodd"/>
  <path fill-rule="evenodd" fill="#E7F2D6" d="m69.012001,58.175999c-0.144005,0.612 6.084,10.619999 7.559998,12.096004c1.368004,1.367996 1.944,-1.836006 0.756004,-3.780006c-1.296005,-2.051994 -8.280006,-9.035995 -8.316002,-8.315998z" clip-rule="evenodd"/>
  <path fill-rule="evenodd" fill="#E7F2D6" d="m75.816002,54.396c0.540001,1.512001 11.124001,16.595997 12.888,18.179996c1.619995,1.440002 -0.972,-6.084 -3.060005,-9.107998c-2.231995,-3.167999 -10.367996,-10.548 -9.827995,-9.071999z" clip-rule="evenodd"/>
  <path fill-rule="evenodd" fill="#E7F2D6" d="m98.531998,160.416c-6.299995,-2.916 -21.059998,-11.304001 -24.984001,-12.132004c-3.959999,-0.935989 -4.751999,3.888 1.512001,6.839996c6.300003,2.952011 31.5,9.576004 35.604004,10.584c3.779999,0.792007 -5.903999,-2.411987 -12.132004,-5.291992z" clip-rule="evenodd"/>
  <path fill-rule="evenodd" fill="#E7F2D6" d="m50.832001,161.171997c3.528,1.367996 32.435997,7.596008 34.811996,7.559998c2.160004,-0.143997 -15.407997,-7.127991 -21.203995,-8.315994c-6.012001,-1.296005 -17.028004,-0.720001 -13.608002,0.755997z" clip-rule="evenodd"/>
  <path fill-rule="evenodd" fill="#E7F2D6" d="m56.880001,200.556c2.556,-0.539993 41.256001,1.944 46.943996,3.024002c5.292,0.972 -6.479996,3.455994 -14.363998,3.022995c-7.956001,-0.539993 -34.919998,-5.61499 -32.579998,-6.046997z" clip-rule="evenodd"/>
  <path fill-rule="evenodd" fill="#E7F2D6" d="m109.907997,210.384003c-0.071999,-1.007996 -12.851997,4.716003 -20.447998,7.595993c-7.776001,2.880005 -24.912003,7.848999 -25.019997,9.072006c0.107994,0.899994 17.243996,-0.251999 25.019997,-3.022995c7.596001,-2.845001 20.375999,-12.674011 20.447998,-13.645004z" clip-rule="evenodd"/>
  <path fill-rule="evenodd" fill="#E7F2D6" d="m129.563995,218.735992c0.792007,1.979004 -3.059998,34.020004 -5.291992,43.919983c-2.304001,9.720001 -7.524002,16.128021 -8.316002,14.363007c-0.863998,-2.052002 0.647995,-15.946991 3.024002,-25.738998c2.303993,-9.827988 9.575996,-34.415985 10.583992,-32.543991z" clip-rule="evenodd"/>
  <path fill-rule="evenodd" fill="#E7F2D6" d="m149.255997,264.167999c-0.647995,1.187988 -5.723999,35.675995 -6.048004,41.652008c-0.431992,5.651001 2.772003,0.179993 3.780014,-6.841003c1.043991,-7.127014 2.771988,-35.855011 2.26799,-34.811005z" clip-rule="evenodd"/>
  <path fill-rule="evenodd" fill="#E7F2D6" d="m157.606995,249.768005c-0.576004,1.261002 1.979996,21.601013 5.292999,31.031982c3.313004,9.324036 13.751999,25.236023 14.399994,24.264008c0.466995,-1.29599 -8.136993,-21.742981 -11.376999,-31.066986c-3.383987,-9.325012 -7.774994,-25.309006 -8.315994,-24.229004z" clip-rule="evenodd"/>
 </g>
</svg>